<svg id="Layer_1" data-name="Layer 1" xmlns="http://www.w3.org/2000/svg" viewBox="0 0 947.86 665.95"><title>Tiff Codes</title><path d="M104.14,25A419,419,0,0,0,86.87,66c-4.74,13.32-9.24,26.71-13.3,40.25q-6.34,21.23-11.91,42.66c-3.4,13.08-7.29,26.35-9.41,39.7-2.19,13.76,1,27.57,14.81,33.69,12.37,5.5,26.05,2.87,37.67-3.21s21.28-15.36,30.69-24.21c8.75-8.23,17.22-16.76,25.11-25.82C179,147.88,194.4,124,202.15,96.74c3.48-12.22-15.34-17.35-19-5.23-6.28,20.83-12.73,41.6-19.1,62.4-5.66,18.48-12.7,39.73-2,57.81,4.39,7.41,11.78,13.52,20.28,15.45,9.56,2.18,19-1.24,26.89-6.62,15-10.3,29.41-21.84,43.59-33.22,28.33-22.73,55.26-47.54,78.21-75.77a336.89,336.89,0,0,0,31-44.68c9.14-15.93,19.8-35.95,9.07-53.8C366.43,5.23,358.17-.16,348.86,0c-10,.18-18.75,6.11-25.44,13.09-13,13.61-22.58,30.76-30.72,47.61A586.2,586.2,0,0,0,252,174.4a597.57,597.57,0,0,0-11.5,59c-2.83,19.72-6.34,40.54-4.08,60.48,2.05,18.2,9.39,35.18,24.62,46.1,14.63,10.49,33.72,10.07,48.7.52s25.48-25.25,33.24-41a166.71,166.71,0,0,0,16-54.92c2-17.6,2.19-37.78-5.63-54.1-7.12-14.88-23.82-24.07-40.09-18.58a25.28,25.28,0,0,0-16.14,16.17c-2.17,6.13,3.59,13.7,10.08,13.23,35.47-2.58,69.17-13.59,100.09-31,29.47-16.6,58.18-38.12,80-64.12,12.52-14.9,22.63-31.45,28.57-50.07,3.59-11.26-13.13-18.09-18.93-8a785.33,785.33,0,0,0-67.66,154c-8.89,28.12-16.92,57-18.16,86.66-.9,21.53,3.53,46.59,22.4,59.76,21.74,15.17,49.59,2.85,65.42-14.95,16.47-18.53,25.32-43.18,26.49-67.78,1.13-23.91-5.36-50.79-21.69-68.92-8-8.85-19.7-15.28-31.88-14.58-11.09.64-22.24,5.81-28,15.66-3.63,6.18-5.28,14.51-1.78,21.11s10.26,9.66,17.47,9.31c7.37-.36,13.68-3.76,20-7.2q10.46-5.68,20.82-11.54,42.72-24.15,83.84-50.92c11.37-7.44.77-25.79-10.69-18.3q-31.1,20.34-63.18,39.08-16.46,9.62-33.18,18.73c-4.77,2.59-9.52,5.62-14.51,7.77.16-.07-3.66,1.37-3.11,1-.89.66-1.31-.78-.6.2a3.71,3.71,0,0,1,1.38,1.23,3.18,3.18,0,0,1,1.27,2.63c-.31-.16.55-1.82,1.15-2.7-.62.9,2.27-2.14,2.07-2a14.46,14.46,0,0,1,7.69-2.49,15.37,15.37,0,0,1,9.05,2.37,30.64,30.64,0,0,1,9.08,8.49c11.26,15.5,14.66,36.25,13.07,55-1.55,18.33-9.07,37.68-22,51-11,11.32-29.76,19.88-41,5.55-10-12.74-8.93-33.6-7.19-49.91,2.6-24.25,9.64-48.06,16.94-71.25A736.39,736.39,0,0,1,514.86,58.59l-18.93-8c-9.29,29-30.73,51.87-53.73,71-24.33,20.21-52,37.49-81.87,48.08-17.14,6.07-34.9,10.09-53.09,10.77l10.08,13.23c-.3.76.49-.39.45-.34.83-.83.12-.14-.11,0,.63-.34,1.19-.75,1.85-1.06-1.27.61,1.12-.32,1.56-.44,2.07-.53,1-.19.51-.14a21.89,21.89,0,0,1,2.29-.06,13.22,13.22,0,0,1,4.57,1.16,13.36,13.36,0,0,1,4.73,4.58c7.53,11,6.6,27.9,5.83,40.46a141.47,141.47,0,0,1-10.65,45.38c-5.48,13.14-13,26.47-23.65,36.11-9.15,8.28-21,11.73-31.89,4.7-11.16-7.21-16-21-17-33.64-1.29-16.66,1.11-33.79,3.35-50.28,2.31-17,5.41-33.87,9.2-50.58A591.81,591.81,0,0,1,299.8,91.21c6.31-15,13.16-29.91,21.77-43.76A134,134,0,0,1,335.4,28.56c3.34-3.73,9.61-10.78,15.38-8.83,4.11,1.39,5.65,6.73,5.62,10.65-.06,7.79-4.34,15.15-7.91,21.83A312,312,0,0,1,323.1,91.86c-18.46,24.64-40.52,46.49-63.78,66.59-11.65,10.07-23.66,19.74-35.92,29.06-6.19,4.71-12.38,9.45-18.79,13.85-4.63,3.16-11,8.48-17,6.85-4.45-1.2-7.73-6.09-9.19-10.21-2.51-7.1-.91-15,.9-22.09,4.52-17.64,10.1-35.08,15.16-52.58,2.56-8.87,5.09-17.74,7.69-26.59l-19-5.23c-5.54,20.21-16,38.71-29.1,55a321.54,321.54,0,0,1-46.7,47.05c-7.3,6-16.86,12.59-26.78,11.9-3.22-.23-7.54-1.16-8.82-4.58-1.38-3.67-.06-8.61.74-12.25,5.55-25.31,12.32-50.41,19.69-75.25,4-13.53,8.09-27,12.38-40.5,4.48-14.08,8.59-28.13,12.58-42.35,2.12-7.57-9.45-12.93-13-5.49Z"/><path d="M211.43,55.41l.28-1.37a9.56,9.56,0,0,0-2.46-9.31,9.59,9.59,0,0,0-9.31-2.45l-1.37.27a10.46,10.46,0,0,0,5.56,20.16,10.49,10.49,0,0,0,7.3-7.3Z"/><path d="M1.42,101.58c17.73,15.27,43.12,13.08,64.7,10.1,27.44-3.8,54.77-8.63,82.08-13.25,5-.84,7.72-6.94,6.48-11.42-1.44-5.24-6.45-7.32-11.41-6.48C117.69,84.85,92.07,89.05,66.61,94,46.3,98,26,101.4,6.23,93.32c-4.57-1.87-8.41,5.16-4.81,8.26Z"/><path d="M138.74,477.81c6.17-15.25-2.39-31.25-14.77-40.33-14.16-10.39-31.86-9.93-47.15-2.36-15,7.42-26.49,21.15-35.07,35.16-9.63,15.73-16.64,34.43-16,53.11C27,559.51,57.87,583.74,92.1,586.85c37.23,3.39,73-18.31,100.08-41.69A224.27,224.27,0,0,0,257.09,450c3.41-9.75-11.94-16.21-16.71-7a438.24,438.24,0,0,0-33.88,84.9c-3.57,12.88-7.89,26.8-5.79,40.27,2.2,14.15,13.26,23.48,27.08,25.63,26.78,4.15,52-9.72,70.83-27.65a186.5,186.5,0,0,0,26.12-31.64c8.29-12.45,14.81-26.19,16.59-41.16,3.12-26.3-12.75-52.4-37.14-62.4-23.57-9.66-53-2.08-68.84,17.9-8.9,11.21-12,25.57-5.31,38.66,5.55,10.8,16.48,17.8,27.48,22.06,22.17,8.57,48.67,4.68,70.89-1.63,51-14.48,98.77-51.41,153.86-47.25V440.27c-31.78-1-63.28,14.16-83.67,38.34C378.86,502,365,538.51,380.11,567.83c8.65,16.79,27.21,23.18,45,19,17.24-4.08,32.52-15.68,46.39-26.21,27.23-20.68,51.56-45.08,70.39-73.74,18.42-28,30.62-60,33.53-93.52,1.38-15.84-.54-37-18.93-42.17-19.56-5.46-34.72,13-43,28.07-19.44,35.23-26.36,77.16-29.24,116.82-1.42,19.64-2.82,40.77.89,60.23,3.46,18.14,17.52,31.88,36.58,31.29,18.15-.57,34-11,47.27-22.52,13.52-11.78,23.59-26.08,32.4-41.56,1-1.67,2.19-4.42,4-5,3.58-1.25,10,1.06,13.56,1.49a89.45,89.45,0,0,0,30.38-1.59c16.45-3.64,36.08-13.28,40.42-31.19,4.48-18.51-10.34-35.25-28.12-38.3-19.11-3.27-36.45,7.33-51.33,18C595.59,477.4,581,490,573.18,506.69s-9.52,36.33-.82,53c15.75,30.2,55.71,30.91,84.29,22.45,36.32-10.76,68.54-32,98.35-54.76,14.56-11.14,30-22.14,42.92-35.14,11.43-11.47,24.13-29.45,18.74-46.55-2.81-8.92-11.08-15.59-20.76-13.39-8.77,2-14.74,10.8-18.39,18.47-7.87,16.54-8.13,35.21-3.9,52.81,4.3,17.92,13.78,34.1,23.51,49.57,9.87,15.7,21.41,31.64,26,49.88,1.95,7.78,2.38,16.31-1.35,23.65-3.2,6.28-8.9,10.78-15.16,13.78-16.32,7.82-36.26,3.95-52.93-.61-6.39-1.75-13.83-4-18.22-9.33-3.69-4.46-3.43-10.53-1.36-15.78,2.86-7.24,9.32-12.63,15.62-16.83,8.37-5.59,17.29-10.4,26-15.47,37.42-21.81,74.78-43.73,112.26-65.44,18.16-10.52,36.41-20.9,54.53-31.48,12.45-7.27,1.18-26.64-11.3-19.35C897.2,486,863.42,506.13,829.48,526l-50.9,29.78c-15.84,9.27-32.87,17.67-47.29,29.11-13.08,10.39-22.31,26.18-19.64,43.31,2.6,16.69,17.17,26.26,32.13,31.07,31.44,10.12,73.78,12.22,94.44-18.72,21.26-31.83-5.38-70.38-22.38-97.28-8.71-13.79-17.35-27.84-21.37-43.8-3.17-12.61-3.89-27.28,2.29-39.14.38-.72,4.68-7.71,5-7.38,0,0-1.89.57-1.91.57-1.17.06-2.34-.73-3.38-1-.06,0-.73-.63-.6-.73a7.28,7.28,0,0,1,.49,2c-.22-1.74-.28,2.54-.14,1.6,0,.16-.87,3-1.31,4.16a42.3,42.3,0,0,1-4.91,8.94c-8.65,12.6-22.51,21.93-34.33,31.32-26.32,20.9-53.92,41.27-85,54.61-12.85,5.52-26.8,10.24-40.61,11-11.46.67-24.2-.75-32.56-7.95-10-8.57-11.49-22.26-7.87-34.56,4.24-14.37,15.61-25.62,27.19-34.53a158.7,158.7,0,0,1,20.32-13.53c6-3.26,13.27-6.37,20.24-5.22,4.4.72,9.87,3.84,11.59,8.28a8.31,8.31,0,0,1-.19,4.92,15.55,15.55,0,0,1-4.75,6.13c-11.28,9.73-30,11.84-44.25,9.83-8.95-1.27-17.73-3.27-25.94,1.94-7,4.44-10.18,11.92-14.12,18.82a119,119,0,0,1-30.41,35c-8.79,6.79-23.51,16.22-35.13,11.22-12.21-5.25-10.33-25.94-10.47-36.45a402.36,402.36,0,0,1,3.34-57.53c2.32-17.58,5.74-35.19,11.15-52.09a168.65,168.65,0,0,1,9.15-23.08c3.51-7.13,7.29-14.71,13-20.35,2.86-2.83,8.35-7.57,12-4.44,3.27,2.85,3.11,10.33,2.94,14.79a157.49,157.49,0,0,1-7.86,42.29c-8.85,27.45-24.56,52.54-43.54,74.12-19.65,22.35-43.36,43.47-69.48,58-10.62,5.91-26.34,11.32-34.58-.2-6.94-9.69-6.24-23.58-3.56-34.56,6.31-25.74,25.34-46.79,49-58a80.72,80.72,0,0,1,37-7.57c13.2.4,12.92-19.38,0-20.34-44.16-3.29-84.23,18.1-123.56,35-18.6,8-38.19,15.48-58.4,17.92-16.63,2-39.89,2.08-51.11-12.93a14.84,14.84,0,0,1-2.74-7c-.26-4.79,2.25-9.17,5.33-12.67a40.92,40.92,0,0,1,25.53-13.3c18.7-2.3,36.71,9.6,42.44,27.5,7.07,22.12-7.14,44.23-20.24,61-12.95,16.61-29.82,32.86-50.87,38-8.1,2-23,3.84-28-4.87-2.39-4.14-1.95-9.75-1.4-14.3.82-6.77,2.68-13.53,4.33-20.14a331.21,331.21,0,0,1,32.57-82.29l-16.71-7a215.11,215.11,0,0,1-45.72,71.42c-20.33,21-45.87,39.81-74.45,47.32-24,6.32-54.4,1.5-68-21.71-14.3-24.45,1-57.63,18-76.73C77.62,456,90.47,445.75,104,448.13c11.45,2,23.49,13.06,19.19,25.4-1.43,4.11,1.63,8.82,5.63,9.91,4.61,1.27,8.28-1.57,9.92-5.63Z"/></svg>